{"title":"Who Framed Roger Rabbit UNCENSORED (AVCHD, 1080p, 1988)","uid":13241181,"size":6219641180,"categoryP":"video","categoryS":"hd___movies","magnet":"?xt=urn:btih:bc4b183abd3cf226a8b251fefacfdb19d1577dce&amp;dn=Who+Framed+Roger+Rabbit+UNCENSORED+%28AVCHD%2C+1080p%2C+1988%29&amp;tr=udp%3A%2F%2Ftracker.leechers-paradise.org%3A6969&amp;tr=udp%3A%2F%2Fzer0day.ch%3A1337&amp;tr=udp%3A%2F%2Fopen.demonii.com%3A1337&amp;tr=udp%3A%2F%2Ftracker.coppersurfer.tk%3A6969&amp;tr=udp%3A%2F%2Fexodus.desync.com%3A6969","seeders":0,"leechers":1,"uploader":null,"files":1,"time":1453056670,"description":"All Credit Goes to Space Kaijuu. \nhttp://originaltrilogy.com/topic/Who-Framed-Roger-Rabbit-uncensored-HDTV-airings/id/15223/page/9\r\n\r\nThis is the HD Blu-Ray version of Who Framed Roger Rabbit that had the censored scenes restored to their original uncensored versions via the HD Uncensored French HDTV airings. Don't Forget to Seed!\r\n\r\nTECHNICAL SPECS:\r\n\r\nVideo.\r\n\r\nFormat : AVC\r\nFormat/Info : Advanced Video Codec\r\nFormat profile :   \r\nFormat settings, CABAC : Yes\r\nFormat settings, ReFrames : 4 frames\r\nCodec ID : V_MPEG4/ISO/AVC\r\nDuration : 1h 43mn\r\nBit rate : 7 577 Kbps\r\nNominal bit rate : 8 000 Kbps\r\nWidth : 1 920 pixels\r\nHeight : 1 080 pixels\r\nDisplay aspect ratio : 16:9\r\nFrame rate mode : Variable\r\nFrame rate : 23.976 fps\r\nColor space : YUV\r\nChroma subsampling : 4:2:0\r\nBit depth : 8 bits\r\nScan type : Progressive\r\nBits/(Pixel*Frame) : 0.152\r\nStream size : 5.49 GiB (95%)\r\n  \r\nAudio.\r\n\r\nLanguage: English\r\nFormat : AC-3\r\nFormat/Info : Audio Coding 3\r\nMode extension : CM (complete main)\r\nCodec ID : AAC3\r\nDuration : 1h 43mn\r\nBit rate mode : Constant\r\nBit rate : 256 Kbps\r\nChannel(s) : 6 channels\r\nChannel positions : Front: L C R, Side: L R, LFE\r\nSampling rate : 48.0 KHz\r\nBit depth : 16 bits\r\nCompression mode : Lossy\r\nStream size : 190 MiB (3%)\r\n\r\nPLOT:\r\n\r\nToon star Roger is worried that his wife Jessica is playing pattycake with someone else, so the studio hires detective Eddie Valiant to snoop on her. But the stakes are quickly raised when Marvin Acme is found dead and Roger is the prime suspect. Groundbreaking interaction between the live and animated characters, and lots of references to classic animation","torrent":{"xt":"urn:btih:bc4b183abd3cf226a8b251fefacfdb19d1577dce","amp;dn":"Who+Framed+Roger+Rabbit+UNCENSORED+%28AVCHD%2C+1080p%2C+1988%29","amp;tr":["udp%3A%2F%2Ftracker.leechers-paradise.org%3A6969","udp%3A%2F%2Fzer0day.ch%3A1337","udp%3A%2F%2Fopen.demonii.com%3A1337","udp%3A%2F%2Ftracker.coppersurfer.tk%3A6969","udp%3A%2F%2Fexodus.desync.com%3A6969"],"infoHash":"bc4b183abd3cf226a8b251fefacfdb19d1577dce","infoHashBuffer":{"type":"Buffer","data":[188,75,24,58,189,60,242,38,168,178,81,254,250,207,219,25,209,87,125,206]},"announce":[],"urlList":[]}}